# xmcd CD database file
#
# Track frame offsets:
#	150
#	2225
#	7792
#	13612
#	20542
#	26680
#	37112
#	47795
#	53447
#	62010
#	68155
#	75440
#	82855
#	92207
#	99905
#	104472
#	112040
#	117945
#	122977
#	129272
#	134510
#	138087
#	143227
#	150207
#	153765
#	161510
#	168965
#	176467
#	183652
#	190077
#	194780
#	200622
#	203942
#	209337
#	215450
#	221602
#	228385
#	237835
#
# Disc length: 3180 seconds
#
# Revision: 0
# Processed by: cddbd v1.5.2PL0 Copyright (c) Steve Scherf et al.
# Submitted via: CDex 1.50beta10
#
DISCID=050c6a26
DTITLE=Gene Autry - The Gene Autry Show (Episodes 1-27)
DYEAR=1900
DGENRE=Country
TTITLE0=Flying A Logo
TTITLE1=Cowboy Blues (w Cass County Boys)
TTITLE2=Home on the Range (w Cass County Boys)
TTITLE3=Great Grand Dad - Cass County Boys
TTITLE4=Mexicali Rose
TTITLE5=Sing Me A Song of the Saddle
TTITLE6=Ridin' Down The Canyon
TTITLE7=Can't Shake the Sands of Texas From My Shoes
TTITLE8=When The Bloom Is On The Sage
TTITLE9=Back In The Saddle Again
TTITLE10=Pretty Mary
TTITLE11=That's My Home
TTITLE12=Texans Never Cry
TTITLE13=Along The Navajo Trail
TTITLE14=Goodbye To Old Mexico
TTITLE15=There's A Rainbow on the Rio Colorado
TTITLE16=When It's Night Time In Nevada
TTITLE17=Mellow Mountain Moon
TTITLE18=Cool Water
TTITLE19=Room Full of Roses
TTITLE20=Back In The Saddle Again
TTITLE21=Be Honest With Me
TTITLE22=I'm Beginning to Care
TTITLE23=Painted Desert
TTITLE24=Broomstick Buckaroo
TTITLE25=The Strawberry Roan
TTITLE26=There's Nothing Like A Good Old-Fashioned Hoedown
TTITLE27=Let Me Ride Down in Rocky Canyon
TTITLE28=Marcheta
TTITLE29=Tweedle-O-Twill
TTITLE30=Red River Valley
TTITLE31=A Heart As Big As Texas
TTITLE32=Let Me Cry On Your Shoulder
TTITLE33=She'll Be Coming Around The Mountain-Tears On My Pillow
TTITLE34=The Angel Song
TTITLE35=I Wish I Had Never Met Sunshine
TTITLE36=Cowboy's Heaven
TTITLE37=End Credit
EXTD=
EXTT0=
EXTT1=
EXTT2=
EXTT3=
EXTT4=
EXTT5=
EXTT6=
EXTT7=
EXTT8=
EXTT9=
EXTT10=
EXTT11=
EXTT12=
EXTT13=
EXTT14=
EXTT15=
EXTT16=
EXTT17=
EXTT18=
EXTT19=
EXTT20=
EXTT21=
EXTT22=
EXTT23=
EXTT24=
EXTT25=
EXTT26=
EXTT27=
EXTT28=
EXTT29=
EXTT30=
EXTT31=
EXTT32=
EXTT33=
EXTT34=
EXTT35=
EXTT36=
EXTT37=
PLAYORDER=
